<svg width="99" height="99" viewBox="0 0 99 99" fill="none" xmlns="http://www.w3.org/2000/svg">
<g id="&#240;&#159;&#166;&#134; icon &#34;letters ai artificial intelligence&#34;">
<g id="Group">
<path id="Vector" d="M0.75 16.5C0.75 7.80153 7.80153 0.75 16.5 0.75H82.5C91.1984 0.75 98.25 7.80153 98.25 16.5V82.5C98.25 91.1984 91.1984 98.25 82.5 98.25H16.5C7.80153 98.25 0.75 91.1984 0.75 82.5V16.5ZM16.5 5.85C10.6181 5.85 5.85 10.6181 5.85 16.5V82.5C5.85 88.3816 10.6181 93.15 16.5 93.15H82.5C88.3817 93.15 93.15 88.3817 93.15 82.5V16.5C93.15 10.6181 88.3816 5.85 82.5 5.85H16.5Z" fill="white" stroke="#FF3075" stroke-width="1.5"/>
<path id="Vector_2" d="M34.0199 35.1596L34.02 35.1596C34.4519 34.2957 35.3348 33.75 36.3006 33.75C37.2666 33.75 38.1494 34.2957 38.5814 35.1596L51.7813 61.5596C52.4112 62.8194 51.9007 64.3508 50.641 64.9807C49.3813 65.6106 47.8498 65.1001 47.2199 63.8404L44.8321 59.0646L44.6248 58.65H44.1612H28.4402H27.9767L27.7694 59.0646L25.3815 63.8403L25.3815 63.8404C24.7517 65.1 23.22 65.6106 21.9603 64.9807C20.7006 64.3508 20.1901 62.8193 20.8199 61.5597L20.1491 61.2242L20.8199 61.5596L34.0199 35.1596ZM40.8612 53.55H42.0748L41.5321 52.4646L36.9715 43.3434L36.3006 42.0017L35.6298 43.3434L31.0694 52.4646L30.5267 53.55H31.7402H40.8612Z" fill="white" stroke="#FF3075" stroke-width="1.5"/>
<path id="Vector_3" d="M69.3 33.75C70.7081 33.75 71.85 34.8917 71.85 36.3V62.7C71.85 64.108 70.708 65.25 69.3 65.25C67.892 65.25 66.75 64.108 66.75 62.7V36.3C66.75 34.8917 67.8919 33.75 69.3 33.75Z" fill="white" stroke="#FF3075" stroke-width="1.5"/>
</g>
</g>
</svg>
