<svg width="31" height="37" viewBox="0 0 31 37" fill="none" xmlns="http://www.w3.org/2000/svg">
<g id="&#240;&#159;&#166;&#134; icon &#34;women line&#34;">
<path id="Vector" d="M14.1574 25.2025V27.1522H7.99101H7.49101V27.6522V30.4348V30.9348H7.99101H14.1574V36V36.5H14.6574H17.324H17.824V36V30.9348H23.9904H24.4904V30.4348V27.6522V27.1522H23.9904H17.824V25.2034C20.3012 24.7485 22.5414 23.3817 24.1341 21.3498C25.8181 19.2013 26.6539 16.4686 26.4766 13.7056C26.2993 10.9426 25.1217 8.34904 23.1764 6.45235C21.2305 4.55505 18.6618 3.49732 15.9902 3.50001L15.9902 3.50001C13.3218 3.50286 10.7581 4.56319 8.81639 6.46016C6.87534 8.35653 5.70047 10.9473 5.52339 13.7069C5.34631 16.4665 6.17968 19.196 7.85964 21.3436C9.44851 23.3748 11.6839 24.7433 14.1574 25.2025ZM20.815 19.4997C19.5317 20.8388 17.7959 21.587 15.9907 21.587C14.1855 21.587 12.4497 20.8388 11.1665 19.4997C9.88251 18.1599 9.15765 16.3384 9.15765 14.4348C9.15765 12.5312 9.88251 10.7096 11.1665 9.36983C12.4497 8.03074 14.1855 7.28261 15.9907 7.28261C17.7959 7.28261 19.5317 8.03074 20.815 9.36983C22.0989 10.7096 22.8238 12.5312 22.8238 14.4348C22.8238 16.3384 22.0989 18.1599 20.815 19.4997Z" fill="white" stroke="white"/>
</g>
</svg>
