<svg width="31" height="32" viewBox="0 0 31 32" fill="none" xmlns="http://www.w3.org/2000/svg">
<g id="&#240;&#159;&#166;&#134; icon &#34;women line&#34;">
<path id="Vector" d="M13.9583 20.7974V23H7.75H7.5V23.25V25.8333V26.0833H7.75H13.9583V31V31.25H14.2083H16.7917H17.0417V31V26.0833H23.25H23.5V25.8333V23.25V23H23.25H17.0417V20.7978C19.4565 20.421 21.6508 19.1666 23.2014 17.2709C24.7984 15.3185 25.5932 12.8319 25.4246 10.3152C25.2561 7.79854 24.1369 5.44011 22.2939 3.71807C20.4509 1.99602 18.0221 1.03923 15.4998 1.04166L15.4997 1.04166C12.9805 1.04425 10.5563 2.0034 8.71726 3.72517C6.87824 5.44694 5.76167 7.80283 5.59336 10.3164C5.42505 12.83 6.21754 15.3137 7.81059 17.2653C9.35749 19.1604 11.5471 20.4163 13.9583 20.7974ZM20.3466 15.8258C19.0612 17.1112 17.3178 17.8333 15.5 17.8333C13.6822 17.8333 11.9388 17.1112 10.6534 15.8258C9.36797 14.5404 8.64583 12.797 8.64583 10.9792C8.64583 9.16132 9.36797 7.41794 10.6534 6.13253C11.9388 4.84713 13.6822 4.12499 15.5 4.12499C17.3178 4.12499 19.0612 4.84713 20.3466 6.13253C21.632 7.41794 22.3542 9.16132 22.3542 10.9792C22.3542 12.797 21.632 14.5404 20.3466 15.8258Z" fill="#FF3075" stroke="#FF3075" stroke-width="0.5"/>
</g>
</svg>
