<svg width="103" height="116" viewBox="0 0 103 116" fill="none" xmlns="http://www.w3.org/2000/svg">
<path id="Vector" d="M98.3791 74.0208C96.5035 72.941 94.3089 72.5537 92.1773 72.9261C90.0457 73.2985 88.1122 74.4071 86.7133 76.0588L74.3035 69.5943V46.4057L86.7221 39.9363C88.2112 41.6793 90.2968 42.8035 92.5708 43.0889C94.8447 43.3743 97.1433 42.8003 99.0165 41.4792C100.89 40.1582 102.203 38.1852 102.699 35.9465C103.195 33.7077 102.838 31.3644 101.698 29.3751C100.558 27.3859 98.7167 25.8939 96.5351 25.1913C94.3536 24.4887 91.9885 24.6259 89.9028 25.5762C87.8171 26.5266 86.161 28.2215 85.2585 30.3293C84.356 32.4371 84.2722 34.806 85.0235 36.9723L72.5971 43.4456L53.2712 33.3791V18.3291C55.5335 17.9037 57.5557 16.6486 58.9416 14.8095C60.3275 12.9705 60.9773 10.68 60.7638 8.38669C60.5503 6.09337 59.4889 3.9624 57.7873 2.41112C56.0858 0.859837 53.8668 0 51.5648 0C49.2629 0 47.0438 0.859837 45.3423 2.41112C43.6408 3.9624 42.5793 6.09337 42.3658 8.38669C42.1523 10.68 42.8022 12.9705 44.1881 14.8095C45.574 16.6486 47.5961 17.9037 49.8584 18.3291V33.3791L30.5325 43.4456L18.1061 36.9723C18.8723 34.7793 18.7922 32.3791 17.8816 30.2422C16.9709 28.1052 15.2955 26.3856 13.1835 25.4204C11.0716 24.4552 8.67558 24.3141 6.46507 25.0247C4.25456 25.7352 2.389 27.2463 1.23407 29.2616C0.0791501 31.2769 -0.281854 33.6511 0.221827 35.9189C0.725508 38.1867 2.05755 40.1845 3.95685 41.5206C5.85615 42.8568 8.18574 43.435 10.489 43.1419C12.7922 42.8489 14.903 41.7056 16.4076 39.9363L28.8261 46.4057V69.5943L16.4154 76.0588C14.9275 74.306 12.8392 73.1719 10.5595 72.8787C8.27978 72.5854 5.97276 73.1542 4.09015 74.4736C2.20755 75.793 0.884937 77.768 0.381279 80.0119C-0.122378 82.2557 0.229191 84.6069 1.36715 86.6051C2.50512 88.6032 4.34751 90.1044 6.53362 90.8147C8.71972 91.525 11.0921 91.3933 13.1862 90.4453C15.2803 89.4974 16.9454 87.8014 17.8554 85.6896C18.7654 83.5777 18.8549 81.202 18.1061 79.0277L30.5325 72.5544L49.8584 82.6209V97.6709C47.5961 98.0963 45.574 99.3514 44.1881 101.19C42.8022 103.03 42.1523 105.32 42.3658 107.613C42.5793 109.907 43.6408 112.038 45.3423 113.589C47.0438 115.14 49.2629 116 51.5648 116C53.8668 116 56.0858 115.14 57.7873 113.589C59.4889 112.038 60.5503 109.907 60.7638 107.613C60.9773 105.32 60.3275 103.03 58.9416 101.19C57.5557 99.3514 55.5335 98.0963 53.2712 97.6709V82.6209L72.5971 72.5544L85.0235 79.0277C84.4557 80.685 84.3703 82.4697 84.7774 84.1737C85.1845 85.8778 86.0672 87.4309 87.3227 88.6522C88.5782 89.8735 90.1547 90.7126 91.8685 91.0718C93.5824 91.4309 95.363 91.2953 97.0027 90.6807C98.6425 90.0661 100.074 88.9978 101.13 87.6004C102.186 86.203 102.824 84.5341 102.968 82.788C103.113 81.042 102.759 79.2908 101.947 77.7385C101.135 76.1863 99.8983 74.8969 98.382 74.0208H98.3791ZM90.8466 28.9263C91.8445 28.3495 92.9909 28.0817 94.1408 28.1568C95.2908 28.232 96.3927 28.6466 97.3071 29.3484C98.2215 30.0502 98.9073 31.0075 99.2779 32.0994C99.6484 33.1912 99.6871 34.3685 99.3889 35.4823C99.0907 36.5961 98.469 37.5963 97.6026 38.3566C96.7361 39.1169 95.6638 39.6029 94.5212 39.7534C93.3787 39.9038 92.2172 39.7118 91.1837 39.2016C90.1502 38.6915 89.2911 37.8862 88.7151 36.8874C88.3284 36.2258 88.0767 35.4939 87.9746 34.7342C87.8725 33.9746 87.922 33.2022 88.1202 32.4618C88.3185 31.7214 88.6615 31.0277 89.1295 30.4208C89.5975 29.8139 90.1811 29.306 90.8466 28.9263ZM45.7388 9.2499C45.7388 8.09696 46.0804 6.96991 46.7206 6.01128C47.3608 5.05264 48.2707 4.30548 49.3353 3.86427C50.3999 3.42306 51.5713 3.30762 52.7014 3.53254C53.8316 3.75747 54.8697 4.31267 55.6845 5.12792C56.4993 5.94317 57.0541 6.98186 57.2789 8.11265C57.5037 9.24343 57.3884 10.4155 56.9474 11.4807C56.5064 12.5459 55.7597 13.4563 54.8016 14.0968C53.8435 14.7374 52.7171 15.0793 51.5648 15.0793C50.0201 15.0777 48.5391 14.4631 47.4469 13.3702C46.3546 12.2773 45.7403 10.7955 45.7388 9.2499ZM51.5648 36.3411L68.9016 45.3725L51.5648 54.4029L34.228 45.3705L51.5648 36.3411ZM6.45694 39.0241C5.4588 38.448 4.6538 37.5887 4.14374 36.5548C3.63369 35.521 3.4415 34.359 3.59146 33.2159C3.74143 32.0727 4.22682 30.9997 4.98625 30.1326C5.74569 29.2655 6.74506 28.6432 7.85798 28.3444C8.9709 28.0455 10.1474 28.0836 11.2387 28.4538C12.33 28.824 13.287 29.5097 13.9888 30.4242C14.6906 31.3386 15.1057 32.4407 15.1814 33.5912C15.2572 34.7417 14.9903 35.8888 14.4145 36.8874C13.6406 38.2247 12.3684 39.2003 10.8767 39.6005C9.38501 40.0006 7.79561 39.7926 6.45694 39.0221V39.0241ZM12.283 87.0737C11.2852 87.6505 10.1388 87.9183 8.98879 87.8432C7.83883 87.7681 6.73696 87.3534 5.82256 86.6516C4.90816 85.9498 4.2223 84.9925 3.85174 83.9006C3.48118 82.8088 3.44256 81.6315 3.74077 80.5177C4.03898 79.404 4.66062 78.4037 5.52706 77.6434C6.3935 76.8831 7.46582 76.3971 8.60839 76.2466C9.75095 76.0962 10.9124 76.2882 11.9459 76.7984C12.9794 77.3085 13.8385 78.1138 14.4145 79.1126C14.8012 79.7742 15.0529 80.5061 15.155 81.2658C15.2571 82.0254 15.2076 82.7978 15.0094 83.5382C14.8112 84.2786 14.4681 84.9724 14.0001 85.5792C13.5322 86.1861 12.9485 86.694 12.283 87.0737ZM32.2389 48.1832L49.8584 57.3619V78.7721L32.2389 69.5943V48.1832ZM57.3909 106.75C57.3909 107.903 57.0492 109.03 56.409 109.989C55.7688 110.947 54.8589 111.695 53.7944 112.136C52.7298 112.577 51.5584 112.692 50.4282 112.467C49.2981 112.243 48.26 111.687 47.4452 110.872C46.6304 110.057 46.0755 109.018 45.8507 107.887C45.6259 106.757 45.7413 105.584 46.1822 104.519C46.6232 103.454 47.3699 102.544 48.328 101.903C49.2861 101.263 50.4125 100.921 51.5648 100.921C53.1095 100.922 54.5905 101.537 55.6828 102.63C56.775 103.723 57.3893 105.205 57.3909 106.75ZM53.2712 78.7721V57.3619L70.8908 48.1832V69.5943L53.2712 78.7721ZM98.8071 84.9409C98.231 85.9394 97.3719 86.7445 96.3384 87.2545C95.305 87.7644 94.1436 87.9563 93.0012 87.8058C91.8587 87.6553 90.7865 87.1692 89.9202 86.409C89.0539 85.6488 88.4323 84.6487 88.1341 83.535C87.8358 82.4214 87.8743 81.2442 88.2447 80.1525C88.6151 79.0607 89.3008 78.1034 90.2149 77.4015C91.1291 76.6997 92.2307 76.2848 93.3806 76.2094C94.5304 76.134 95.6767 76.4014 96.6746 76.9779C97.3412 77.3568 97.9258 77.8644 98.3946 78.4714C98.8633 79.0783 99.2068 79.7725 99.405 80.5134C99.6032 81.2544 99.6523 82.0273 99.5493 82.7874C99.4464 83.5475 99.1934 84.2795 98.8052 84.9409H98.8071Z" fill="white"/>
</svg>
