<svg width="18" height="13" viewBox="0 0 18 13" fill="none" xmlns="http://www.w3.org/2000/svg">
<path id="Vector" fill-rule="evenodd" clip-rule="evenodd" d="M0 6.37833C0 6.13671 0.118513 5.90499 0.329468 5.73414C0.540423 5.56329 0.826539 5.46731 1.12487 5.46731H14.1577L9.32746 1.55718C9.11624 1.38612 8.99757 1.1541 8.99757 0.912177C8.99757 0.670253 9.11624 0.438237 9.32746 0.267171C9.53868 0.0961042 9.82516 0 10.1239 0C10.4226 0 10.7091 0.0961042 10.9203 0.267171L17.6695 5.73332C17.7743 5.81795 17.8574 5.91848 17.9141 6.02916C17.9708 6.13984 18 6.2585 18 6.37833C18 6.49816 17.9708 6.61682 17.9141 6.7275C17.8574 6.83818 17.7743 6.93871 17.6695 7.02334L10.9203 12.4895C10.7091 12.6606 10.4226 12.7567 10.1239 12.7567C9.82516 12.7567 9.53868 12.6606 9.32746 12.4895C9.11624 12.3184 8.99757 12.0864 8.99757 11.8445C8.99757 11.6026 9.11624 11.3705 9.32746 11.1995L14.1577 7.28936H1.12487C0.826539 7.28936 0.540423 7.19337 0.329468 7.02252C0.118513 6.85167 0 6.61995 0 6.37833Z" fill="#FF3075"/>
</svg>
